<?xml version="1.0" standalone="no"?>
<!DOCTYPE svg PUBLIC "-//W3C//DTD SVG 1.1//EN" "http://www.w3.org/Graphics/SVG/1.1/DTD/svg11.dtd" >
<svg xmlns="http://www.w3.org/2000/svg">
<metadata>Generated by IcoMoon</metadata>
<defs>
<font id="icomoon" horiz-adv-x="1024">
<font-face units-per-em="1024" ascent="960" descent="-64" />
<missing-glyph horiz-adv-x="1024" />
<glyph unicode="&#x20;" horiz-adv-x="512" d="" />
<glyph unicode="&#xe900;" glyph-name="btn_aligned_bottom" d="M222.609 158.609v44.522h578.783v-44.522h-578.783zM578.783 559.304h222.609v-311.652h-222.609v311.652zM222.609 737.391h267.13v-489.739h-267.13v489.739zM267.13 292.174h178.087v400.696h-178.087v-400.696z" />
<glyph unicode="&#xe901;" glyph-name="btn_aligned_left" d="M311.652 158.609v267.13h489.739v-267.13h-489.739zM756.87 381.217h-400.696v-178.087h400.696v178.087zM311.652 737.391h311.652v-222.609h-311.652v222.609zM222.609 737.391h44.522v-578.783h-44.522v578.783z" />
<glyph unicode="&#xe902;" glyph-name="btn_aligned_middle" d="M756.87 425.739v-222.609h-222.609v-89.043h-44.522v89.043h-222.609v222.609h222.609v89.043h-133.565v178.087h133.565v89.043h44.522v-89.043h133.565v-178.087h-133.565v-89.043h222.609zM311.652 381.217v-133.565h400.696v133.565h-400.696z" />
<glyph unicode="&#xe903;" glyph-name="btn_aligned_middle_y" d="M756.87 425.739v-133.565h-178.087v133.565h-89.043v-222.609h-222.609v222.609h-89.043v44.522h89.043v222.609h222.609v-222.609h89.043v133.565h178.087v-133.565h89.043v-44.522h-89.043zM445.217 648.348h-133.565v-400.696h133.565v400.696z" />
<glyph unicode="&#xe904;" glyph-name="btn_aligned_right" d="M756.87 158.609v578.783h44.522v-578.783h-44.522zM222.609 425.739h489.739v-267.13h-489.739v267.13zM267.13 203.13h400.696v178.087h-400.696v-178.087zM400.696 737.391h311.652v-222.609h-311.652v222.609z" />
<glyph unicode="&#xe905;" glyph-name="btn_aligned_top" d="M578.783 336.696v311.652h222.609v-311.652h-222.609zM222.609 737.391h578.783v-44.522h-578.783v44.522zM489.739 158.609h-267.13v489.739h267.13v-489.739zM445.217 603.826h-178.087v-400.696h178.087v400.696z" />
<glyph unicode="&#xe906;" glyph-name="btn_close_card" d="M637.997 353.569l-31.61-31.477-94.386 94.431-94.386-94.431-31.61 31.477 94.386 94.431-94.386 94.431 31.61 31.477 94.386-94.431 94.386 94.431 31.61-31.477-94.386-94.431z" />
<glyph unicode="&#xe907;" glyph-name="btn_dis_bottom" d="M756.87 158.609h-578.783v44.522h89.043v178.087h489.739v-178.087h89.043v-44.522h-89.043zM712.348 336.696h-400.696v-133.565h400.696v133.565zM356.174 514.783h-178.087v44.522h178.087v178.087h311.652v-178.087h178.087v-44.522h-489.739z" />
<glyph unicode="&#xe908;" glyph-name="btn_dis_left" d="M801.391 292.174h-178.087v-178.087h-44.522v667.826h44.522v-178.087h178.087v-311.652zM267.13 114.087h-44.522v667.826h44.522v-89.043h178.087v-489.739h-178.087v-89.043zM400.696 247.652v400.696h-133.565v-400.696h133.565z" />
<glyph unicode="&#xe909;" glyph-name="btn_dis_middle" d="M801.391 292.174h-89.043v-178.087h-44.522v178.087h-89.043v311.652h89.043v178.087h44.522v-178.087h89.043v-311.652zM356.174 114.087h-44.522v89.043h-89.043v489.739h89.043v89.043h44.522v-89.043h89.043v-489.739h-89.043v-89.043zM400.696 247.652v400.696h-133.565v-400.696h133.565z" />
<glyph unicode="&#xe90a;" glyph-name="btn_dis_middle_y" d="M756.87 247.652v-89.043h-489.739v89.043h-89.043v44.522h89.043v89.043h489.739v-89.043h89.043v-44.522h-89.043zM712.348 336.696h-400.696v-133.565h400.696v133.565zM667.826 514.783h-311.652v89.043h-178.087v44.522h178.087v89.043h311.652v-89.043h178.087v-44.522h-178.087v-89.043z" />
<glyph unicode="&#xe90b;" glyph-name="btn_dis_right" d="M756.87 114.087v89.043h-178.087v489.739h178.087v89.043h44.522v-667.826h-44.522zM756.87 648.348h-133.565v-400.696h133.565v400.696zM400.696 292.174h-178.087v311.652h178.087v178.087h44.522v-667.826h-44.522v178.087z" />
<glyph unicode="&#xe90c;" glyph-name="btn_dis_top" d="M667.826 336.696v-178.087h-311.652v178.087h-178.087v44.522h667.826v-44.522h-178.087zM756.87 514.783h-489.739v178.087h-89.043v44.522h667.826v-44.522h-89.043v-178.087zM712.348 692.87h-400.696v-133.565h400.696v133.565z" />
<glyph unicode="&#xe90d;" glyph-name="btn_edit" d="M756.87 114.087h-489.739c-49.177 0-89.043 39.866-89.043 89.043v0 489.739c0 49.177 39.866 89.043 89.043 89.043v0h267.13v-89.043h-222.609c-24.589 0-44.522-19.933-44.522-44.522v0-400.696c0-24.589 19.933-44.522 44.522-44.522v0h400.696c24.589 0 44.522 19.933 44.522 44.522v0 178.087h89.043v-222.609c0-49.177-39.866-89.043-89.043-89.043v0zM406.127 342.439c-26.090 26.134 45.857 136.058 45.857 136.058l90.735-91.047s-110.503-71.19-136.593-45.011zM482.215 508.861l272.295 273.052 90.735-91.047-272.25-273.096z" />
<glyph unicode="&#xe90e;" glyph-name="btn_match_h" d="M489.739 158.609v44.522h311.652v-44.522h-311.652zM534.261 292.174v311.652h222.609v-311.652h-222.609zM712.348 559.304h-133.565v-222.609h133.565v222.609zM489.739 737.391h311.652v-44.522h-311.652v44.522zM222.609 737.391h222.609v-578.783h-222.609v578.783z" />
<glyph unicode="&#xe90f;" glyph-name="btn_match_w" d="M222.609 158.609v222.609h578.783v-222.609h-578.783zM756.87 737.391h44.522v-311.652h-44.522v311.652zM356.174 692.87h311.652v-222.609h-311.652v222.609zM400.696 514.783h222.609v133.565h-222.609v-133.565zM222.609 737.391h44.522v-311.652h-44.522v311.652z" />
<glyph unicode="&#xe910;" glyph-name="btn_match_w_h" d="M578.783 158.609v44.522h222.609v-44.522h-222.609zM623.304 247.652v133.565h133.565v-133.565h-133.565zM712.348 336.696h-44.522v-44.522h44.522v44.522zM578.783 470.261h222.609v-44.522h-222.609v44.522zM222.609 470.261h311.652v-311.652h-311.652v311.652zM489.739 737.391h44.522v-222.609h-44.522v222.609zM311.652 692.87h133.565v-133.565h-133.565v133.565zM356.174 603.826h44.522v44.522h-44.522v-44.522zM222.609 737.391h44.522v-222.609h-44.522v222.609z" />
<glyph unicode="&#xe911;" glyph-name="btn_reload" d="M489.739 601.6c-100.153-11.809-177.107-96.197-177.107-198.559 0-110.379 89.48-199.858 199.858-199.858 110.172 0 199.523 89.145 199.857 199.239v0.032h89.043c0-0.102 0-0.224 0-0.345 0-159.826-129.565-289.391-289.391-289.391s-289.391 129.565-289.391 289.391c0 151.992 117.174 276.616 266.118 288.469l1.013 0.065v91.27l222.609-133.565-222.609-133.565v86.817z" />
<glyph unicode="&#xe912;" glyph-name="btn_spacing_x" d="M489.739 114.087v222.609h356.174v-222.609h-356.174zM801.391 292.174h-267.13v-133.565h267.13v133.565zM489.739 781.913h356.174v-222.609h-356.174v222.609zM178.087 381.217h267.13v-44.522h-267.13v44.522zM178.087 559.304h267.13v-44.522h-267.13v44.522z" />
<glyph unicode="&#xe913;" glyph-name="btn_spacing_y" d="M623.304 114.087v356.174h222.609v-356.174h-222.609zM578.783 781.913h44.522v-267.13h-44.522v267.13zM400.696 781.913h44.522v-267.13h-44.522v267.13zM400.696 114.087h-222.609v356.174h222.609v-356.174zM356.174 425.739h-133.565v-267.13h133.565v267.13z" />
<glyph unicode="&#xe914;" glyph-name="btn_view" d="M512 203.13c-135.257 0-378.435 222.253-378.435 244.87s243.178 244.87 378.435 244.87 378.435-224.434 378.435-244.87-243.178-244.87-378.435-244.87zM512 603.826c-86.060 0-155.826-69.766-155.826-155.826s69.766-155.826 155.826-155.826c86.060 0 155.826 69.766 155.826 155.826v0c0 86.060-69.766 155.826-155.826 155.826v0zM512 381.217c-36.883 0-66.783 29.9-66.783 66.783s29.9 66.783 66.783 66.783c36.883 0 66.783-29.9 66.783-66.783v0c0-36.883-29.9-66.783-66.783-66.783v0z" />
<glyph unicode="&#xe915;" glyph-name="icon_add" d="M667.826 425.739h-133.565v-133.565h-44.522v133.565h-133.565v44.522h133.565v133.565h44.522v-133.565h133.565v-44.522z" />
<glyph unicode="&#xe916;" glyph-name="icon_big_view" d="M801.391 158.609h-222.609v89.043h133.565c24.589 0 44.522 19.933 44.522 44.522v0 311.652c0 24.589-19.933 44.522-44.522 44.522v0h-311.652c-24.589 0-44.522-19.933-44.522-44.522v0h-89.043v89.043c0 24.589 19.933 44.522 44.522 44.522v0h489.739c24.589 0 44.522-19.933 44.522-44.522v0-489.739c0-24.589-19.933-44.522-44.522-44.522v0zM356.174 559.304h-89.043v44.522h89.043v-44.522zM534.261 470.261v-267.13c0-24.589-19.933-44.522-44.522-44.522v0h-267.13c-24.589 0-44.522 19.933-44.522 44.522v0 267.13c0 24.589 19.933 44.522 44.522 44.522v0h267.13c24.589 0 44.522-19.933 44.522-44.522v0z" />
<glyph unicode="&#xe917;" glyph-name="icon_control" d="M712.348 203.13h-400.696c-24.589 0-44.522 19.933-44.522 44.522v0 311.652h44.522v-289.391c0-12.294 9.967-22.261 22.261-22.261v0h356.174c12.294 0 22.261 9.967 22.261 22.261v0 289.391h44.522v-311.652c0-24.589-19.933-44.522-44.522-44.522v0zM445.217 692.87h267.13c24.589 0 44.522-19.933 44.522-44.522v0-44.522h-311.652v89.043zM623.304 336.696h-133.565v44.522h133.565v-44.522zM389.387 559.661l89.4-89.4h10.952v-10.952l0.356-0.356-0.356-0.401v-21.103l0.356-0.401-0.356-0.356v-10.952h-10.952l-89.4-89.4-33.569 33.569 78.091 78.091-78.091 78.091zM267.13 648.348c0 24.589 19.933 44.522 44.522 44.522v0h89.043v-89.043h-133.565v44.522z" />
<glyph unicode="&#xe918;" glyph-name="icon_folder" d="M756.87 603.826h-489.739v-89.043h-44.522v222.609h178.087l133.565-89.043h267.13v-133.565h-44.522v89.043zM756.87 158.609h-489.739l-89.043 311.652h667.826z" />
<glyph unicode="&#xe919;" glyph-name="icon_layout" d="M756.87 425.739v-222.609h-178.087v89.043h-89.043v133.565h-44.522v-89.043h-178.087v222.609h178.087v-89.043h44.522v133.565h89.043v89.043h178.087v-222.609h-178.087v89.043h-44.522v-222.609h44.522v89.043h178.087zM623.304 247.652h89.043v133.565h-89.043v-133.565zM400.696 514.783h-89.043v-133.565h89.043v133.565zM623.304 514.783h89.043v133.565h-89.043v-133.565z" />
<glyph unicode="&#xe91a;" glyph-name="icon_little_view" d="M712.348 247.652h-133.565v44.522h89.043c24.589 0 44.522 19.933 44.522 44.522v0 222.609c0 24.589-19.933 44.522-44.522 44.522v0h-222.609c-24.589 0-44.522-19.933-44.522-44.522v0h-44.522v44.522c0 24.589 19.933 44.522 44.522 44.522v0h311.652c24.589 0 44.522-19.933 44.522-44.522v0-311.652c0-24.589-19.933-44.522-44.522-44.522v0zM534.261 470.261v-178.087c0-24.589-19.933-44.522-44.522-44.522v0h-178.087c-24.589 0-44.522 19.933-44.522 44.522v0 178.087c0 24.589 19.933 44.522 44.522 44.522v0h178.087c24.589 0 44.522-19.933 44.522-44.522v0z" />
<glyph unicode="&#xe91b;" glyph-name="icon_pro_game" d="M712.348 470.261v133.565c-5.941 21.776-22.745 38.581-44.081 44.419l-0.441 0.103h-133.565v44.522h133.565c49.177 0 89.043-39.866 89.043-89.043v0-133.565h-44.522zM489.739 648.348h-133.565c-21.725-6.033-38.489-22.797-44.416-44.077l-0.106-0.445v-133.565h-44.522v133.565c0 49.177 39.866 89.043 89.043 89.043v0h133.565v-44.522zM311.652 425.739v-133.565c6.074-21.702 22.82-38.448 44.075-44.415l0.447-0.107h133.565v-44.522h-133.565c-49.177 0-89.043 39.866-89.043 89.043v0 133.565h44.522zM534.261 247.652h133.565c22.138 5.278 39.244 22.384 44.44 44.116l0.082 0.405v133.565h44.522v-133.565c0-49.177-39.866-89.043-89.043-89.043v0h-133.565v44.522z" />
<glyph unicode="&#xe91c;" glyph-name="icon_project" d="M667.826 203.13v89.043h89.043v-89.043h-89.043zM667.826 425.739h89.043v-89.043h-89.043v89.043zM534.261 292.174h89.043v-89.043h-89.043v89.043zM489.739 336.696h44.522v-44.522h-44.522v44.522zM623.304 425.739v-89.043h-89.043v89.043h89.043zM356.174 425.739v44.522h44.522v-44.522h-44.522zM267.13 559.304h89.043v-89.043h-89.043v89.043zM400.696 559.304h89.043v-89.043h-89.043v89.043zM400.696 692.87h89.043v-89.043h-89.043v89.043zM267.13 692.87h89.043v-89.043h-89.043v89.043zM400.696 336.696h44.522v-44.522h-89.043v89.043h44.522v-44.522z" />
<glyph unicode="&#xe91d;" glyph-name="icon_property" d="M485.287 247.652c-9.149-26.123-33.591-44.522-62.33-44.522s-53.181 18.399-62.189 44.060l-0.141 0.462h-93.496v44.522h93.496c9.149 26.123 33.591 44.522 62.33 44.522s53.181-18.399 62.189-44.060l0.141-0.462h271.583v-44.522h-271.583zM601.043 381.217c-28.681 0.184-53.035 18.503-62.185 44.058l-0.145 0.464h-271.583v44.522h271.583c9.149 26.123 33.591 44.522 62.33 44.522s53.181-18.399 62.189-44.060l0.141-0.462h93.496v-44.522h-93.496c-9.295-26.019-33.65-44.338-62.308-44.522h-0.022zM422.957 559.304c-28.681 0.184-53.035 18.503-62.185 44.058l-0.145 0.464h-93.496v44.522h93.496c9.149 26.123 33.591 44.522 62.33 44.522s53.181-18.399 62.189-44.060l0.141-0.462h271.583v-44.522h-271.583c-9.295-26.019-33.65-44.338-62.308-44.522h-0.022z" />
<glyph unicode="&#xe91e;" glyph-name="icon_scenes" d="M756.87 203.13h-489.739v311.652h15.36l-15.36 90.424 474.379 87.663 15.36-90.424-473.8-87.663h473.8v-311.652zM712.348 381.217h-356.174v44.522h356.174v44.522h-400.696v-222.609h400.696v133.565z" />
<glyph unicode="&#xe91f;" glyph-name="icon_search" d="M790.528 169.472c-16.113-16.108-38.37-26.071-62.954-26.071s-46.841 9.963-62.954 26.071l-75.687 75.687c-34.225-16.877-74.507-26.749-117.095-26.749-148.934 0-269.668 120.735-269.668 269.668s120.735 269.668 269.668 269.668c148.934 0 269.668-120.735 269.668-269.668 0-42.521-9.841-82.743-27.37-118.513l0.704 1.59 75.687-75.687c16.135-16.117 26.115-38.392 26.115-62.998s-9.981-46.881-26.114-62.997l-0.001-0.001zM474.424 663.663c-98.355 0-178.087-79.732-178.087-178.087s79.732-178.087 178.087-178.087c98.355 0 178.087 79.732 178.087 178.087v0c0 98.355-79.732 178.087-178.087 178.087v0z" />
<glyph unicode="&#xe920;" glyph-name="icon_setting_card" d="M712.348 448c-0.054-12.93-1.348-25.525-3.769-37.714l0.207 1.251 87.263-50.399-66.783-115.757-88.153 50.844c-17.653-15.253-38.336-27.597-60.946-35.97l-1.385-0.449v-101.198h-133.565v101.287c-23.994 8.822-44.677 21.166-62.586 36.635l0.256-0.216-88.153-50.844-66.783 115.757 87.263 50.399c-2.264 10.956-3.56 23.547-3.56 36.441s1.296 25.485 3.765 37.65l-0.205-1.209-87.263 50.399 66.783 115.757 88.153-50.844c17.653 15.253 38.336 27.597 60.946 35.97l1.385 0.449v101.153h133.565v-101.287c23.994-8.822 44.677-21.166 62.586-36.635l-0.256 0.216 88.153 50.844 66.783-115.757-87.263-50.399c2.208-10.909 3.502-23.472 3.562-36.327v-0.048zM512 559.304c-61.472 0-111.304-49.833-111.304-111.304s49.833-111.304 111.304-111.304c61.472 0 111.304 49.833 111.304 111.304v0c0 61.472-49.833 111.304-111.304 111.304v0z" />
<glyph unicode="&#xe921;" glyph-name="icon_triangle_down" d="M311.652 559.304h400.696l-200.348-222.609z" />
<glyph unicode="&#xe922;" glyph-name="icon_triangle_right" d="M400.696 247.652v400.696l222.609-200.348z" />
<glyph unicode="&#xe923;" glyph-name="icon_welcome" d="M712.348 292.174h-44.522l-44.522-89.043-89.043 89.043h-222.609c-24.589 0-44.522 19.933-44.522 44.522v0 311.652c0 24.589 19.933 44.522 44.522 44.522v0h400.696c24.589 0 44.522-19.933 44.522-44.522v0-311.652c0-24.589-19.933-44.522-44.522-44.522v0zM712.348 626.087c0 12.294-9.967 22.261-22.261 22.261v0h-356.174c-12.294 0-22.261-9.967-22.261-22.261v0-267.13c0-12.294 9.967-22.261 22.261-22.261v0h356.174c12.294 0 22.261 9.967 22.261 22.261v0 267.13zM623.304 381.217h-44.522c22.829 23.656 38.739 54.129 44.388 88.071l0.134 0.972v44.522c-5.272 35.039-21.287 65.638-44.531 89.053l0.009-0.010h44.522c24.004-22.721 40.243-53.428 44.452-87.852l0.070-0.701c0.49-17.809 0-0.267 0-44.522-5.166-35.222-21.2-66.006-44.533-89.545l0.011 0.011zM400.696 470.261h89.043v-89.043h-89.043v89.043zM400.696 603.826h89.043v-89.043h-89.043v89.043z" />
<glyph unicode="&#xe924;" glyph-name="btn_close_root" d="M712.348 617.85l-169.628-169.717 169.628-169.316-30.72-30.854-169.628 169.494-169.628-169.806-30.72 31.165 169.628 169.494-169.628 169.539 30.72 30.854 169.628-169.717 169.628 169.717z" />
<glyph unicode="&#xe925;" glyph-name="btn_window_root" d="M712.348 381.217v267.13h-267.13v44.522h311.652v-311.652h-44.522zM667.826 203.13h-400.696v400.696h400.696v-400.696zM623.304 559.304h-311.652v-311.652h311.652v311.652z" />
<glyph unicode="&#xe926;" glyph-name="btn_windowMax_root" d="M311.652 247.652v400.696h400.696v-400.696h-400.696zM667.826 603.826h-311.652v-311.652h311.652v311.652z" />
<glyph unicode="&#xe927;" glyph-name="btn_winMini_root" d="M311.652 470.261h400.696v-44.522h-400.696v44.522z" />
<glyph unicode="&#xe928;" glyph-name="btn_more" d="M244.87 514.783c36.883 0 66.783-29.9 66.783-66.783s-29.9-66.783-66.783-66.783c-36.883 0-66.783 29.9-66.783 66.783v0c0 36.883 29.9 66.783 66.783 66.783v0zM512 514.783c36.883 0 66.783-29.9 66.783-66.783s-29.9-66.783-66.783-66.783c-36.883 0-66.783 29.9-66.783 66.783v0c0 36.883 29.9 66.783 66.783 66.783v0zM779.13 514.783c36.883 0 66.783-29.9 66.783-66.783s-29.9-66.783-66.783-66.783c-36.883 0-66.783 29.9-66.783 66.783v0c0 36.883 29.9 66.783 66.783 66.783v0z" />
<glyph unicode="&#xe929;" glyph-name="icon_add_project" d="M712.348 247.652v-133.565h-44.522v133.565h-133.565v44.522h133.565v133.565h44.522v-133.565h133.565v-44.522h-133.565zM667.826 737.391h-311.652v-178.087h-133.565v-356.174h222.609v-44.522h-267.13v400.696l178.087 222.609h356.174v-267.13h-44.522v222.609z" />
<glyph unicode="&#xe92a;" glyph-name="icon_open" d="M756.87 514.783v133.565h-267.13l-89.043 89.043h-222.609v-578.783h578.783l89.043 356.174h-89.043zM222.609 603.826h489.739v-89.043h-445.217l-44.522-178.087v267.13zM722.143 203.13h-487.068l66.783 267.13h487.068z" />
<glyph unicode="&#xe92b;" d="M1024 448c0-282.77-229.23-512-512-512s-512 229.23-512 512c0 282.77 229.23 512 512 512s512-229.23 512-512z" />
<glyph unicode="&#xe92c;" d="M455.111 163.556h113.778c0.035 0 0.076 0 0.117 0 82.079 0 155.989 34.975 207.64 90.834l0.172 0.188c42.042-17.662 78.316-39.234 111.088-65.050l-1.008 0.766c-83.183-119.705-220.004-197.084-374.898-197.084s-291.714 77.379-373.914 195.59l-0.983 1.494c31.765 25.051 68.038 46.622 106.983 63.119l3.097 1.165c51.823-56.048 125.733-91.022 207.812-91.022 0.041 0 0.082 0 0.123 0h-0.006zM398.222 419.556c31.419 0 56.889 25.47 56.889 56.889v0 56.889c0 31.419-25.47 56.889-56.889 56.889v0h-56.889c-31.419 0-56.889-25.47-56.889-56.889v0-56.889c0-31.419 25.47-56.889 56.889-56.889v0zM768 448c0-31.419-25.47-56.889-56.889-56.889v0h-113.778c-31.419 0-56.889 25.47-56.889 56.889v0 56.889h-56.889v-56.889c0-31.419-25.47-56.889-56.889-56.889v0h-113.778c-31.419 0-56.889 25.47-56.889 56.889v0 56.889h-28.444v-28.444c0-141.385 114.615-256 256-256v0h56.889c141.385 0 256 114.615 256 256v0 28.444h-28.444zM654.222 786.489v88.178l-113.778-85.333v56.889l-85.333-56.889h-56.889c-94.257 0-170.667-76.41-170.667-170.667v0-56.889h28.444c0 31.419 25.47 56.889 56.889 56.889v0h113.778c31.419 0 56.889-25.47 56.889-56.889v0h56.889c0 31.419 25.47 56.889 56.889 56.889v0h113.778c31.419 0 56.889-25.47 56.889-56.889v0h28.444v56.889c-0.232 84.019-61.141 153.743-141.203 167.675l-1.019 0.147zM682.667 419.556c31.419 0 56.889 25.47 56.889 56.889v0 56.889c0 31.419-25.47 56.889-56.889 56.889v0h-56.889c-31.419 0-56.889-25.47-56.889-56.889v0-56.889c0-31.419 25.47-56.889 56.889-56.889v0z" />
<glyph unicode="&#xe92d;" horiz-adv-x="2389" d="M1177.6 396.8h-51.2c-65.98 0-119.467-53.487-119.467-119.467v0h68.267c0.058 28.254 22.946 51.142 51.194 51.2h51.206c28.254-0.058 51.142-22.946 51.2-51.194v-17.073h-128c-51.841 0-93.867-42.026-93.867-93.867v0-17.067c0-51.841 42.026-93.867 93.867-93.867v0h8.533c0.093 0 0.203 0 0.313 0 45.429 0 87.071 16.213 119.456 43.168l-0.303-0.245v-42.923h68.267v221.867c0 65.98-53.487 119.467-119.467 119.467v0zM1109.333 123.733h-8.533c-14.138 0-25.6 11.462-25.6 25.6v0 17.067c0 14.138 11.462 25.6 25.6 25.6v0h116.395c-19.598-40.684-60.509-68.261-107.861-68.267h-0.001zM1518.933 396.8c-32.216-0.109-61.889-10.906-85.681-29.029l0.348 0.254v28.774h-68.267v-460.8h68.267v148.241c23.444-17.868 53.117-28.666 85.308-28.774h0.025c84.821 0 153.6 76.407 153.6 170.667s-68.779 170.667-153.6 170.667zM1518.933 123.733c-47.104 0-85.333 45.943-85.333 102.4s38.229 102.4 85.333 102.4 85.333-45.943 85.333-102.4-38.229-102.4-85.333-102.4zM2047.147 209.067c0.512 5.615 0.853 11.298 0.853 17.067-4.545 86.018-75.4 154.044-162.142 154.044-89.666 0-162.355-72.689-162.355-162.355s72.689-162.355 162.355-162.355c0.003 0 0.006 0 0.009 0v0c67.156 0.91 124.359 42.558 148.092 101.313l0.388 1.087h-78.677c-16.528-20.614-41.592-33.794-69.746-34.133l-0.056-0.001c-47.893 1.867-86.741 38.244-92.455 84.865l-0.047 0.468h253.781zM1885.867 328.533c41.827-1.232 76.769-29.34 88.232-67.595l0.173-0.672h-176.811c11.637 38.927 46.578 67.034 88.267 68.263l0.139 0.003zM2234.709 379.733c-24.739-0.389-47.854-6.991-67.961-18.309l0.718 0.372v17.937h-68.267v-307.2h68.267v188.672c0 23.484 35.84 50.261 67.243 50.261h35.157v68.267h-35.157z" />
<glyph unicode="&#xe92e;" horiz-adv-x="2389" d="M1501.867 610.133c0-4.713 3.821-8.533 8.533-8.533v0h17.067v-17.067h-25.6c-9.426 0-17.067 7.641-17.067 17.067v0 85.333h-17.067v17.067h17.067v25.6h17.067v-25.6h34.133v-17.067h-34.133v-76.8zM1399.467 601.6c12.189 1.143 22.678 7.571 29.269 16.939l0.085 0.128h21.845c-9.063-19.828-28.461-33.493-51.119-34.132l-0.081-0.002c-28.277 0-51.2 22.923-51.2 51.2v0 17.067c0 28.277 22.923 51.2 51.2 51.2s51.2-22.923 51.2-51.2v0-17.067h-85.333c0-18.851 15.282-34.133 34.133-34.133v0zM1433.6 652.8c0 18.851-15.282 34.133-34.133 34.133s-34.133-15.282-34.133-34.133v0h68.267zM1280.171 660.429v25.037c12.971 23.893 51.029 18.022 51.029 18.022v-15.36c-0.619 0.024-1.345 0.038-2.074 0.038-20.687 0-38.804-11.007-48.812-27.484l-0.143-0.253zM1262.933 704h17.067v-119.467h-17.067v119.467zM1194.667 533.333c-23.987 0.059-44.093 16.605-49.591 38.902l-0.073 0.351h15.531v11.947c0-18.851 15.282-34.133 34.133-34.133s34.133 15.282 34.133 34.133v0 15.497c-8.48-9.342-20.593-15.256-34.091-15.496l-0.043-0.001c-29.155 4.656-51.169 29.624-51.169 59.733s22.013 55.077 50.823 59.688l0.345 0.046c21.277-0.947 39.102-14.743 45.968-33.777l0.112-0.357h5.12v-102.4c-7.823-20.141-27.053-34.159-49.556-34.159-0.578 0-1.154 0.009-1.728 0.028l0.084-0.002zM1194.667 686.933c-19.697-4.527-34.164-21.907-34.164-42.667s14.467-38.14 33.869-42.61l0.294-0.057c19.667 4.556 34.103 21.926 34.103 42.667s-14.436 38.11-33.808 42.609l-0.295 0.058zM1024 738.133h102.4v-17.067h-85.333v-51.2h85.333v-17.067h-85.333v-51.2h85.333v-17.067h-102.4v153.6z" />
<glyph unicode="&#xe92f;" horiz-adv-x="2389" d="M324.267 362.667c-107.52 0-204.8-103.134-204.8-204.8v221.867c0 28.194 22.187 78.507 34.133 102.4 31.232 62.242 110.080 102.4 187.733 102.4h341.333c66.048 0 117.419 20.651 152.576 68.267 21.969-33.778 35.066-75.084 35.157-119.442v-0.024c0.172-2.643 0.271-5.73 0.271-8.84 0-35.785-13.015-68.53-34.57-93.76l0.166 0.199c-39.428-44.023-96.445-71.597-159.902-71.597-0.364 0-0.729 0.001-1.093 0.003h0.056s-446.464 3.328-351.061 3.328z" />
<glyph unicode="&#xe930;" horiz-adv-x="2389" d="M119.467 550.4c0 103.509 97.621 187.733 204.8 187.733h341.333c2.394 0.107 5.202 0.168 8.024 0.168 61.386 0 116.050-28.78 151.235-73.583l0.314-0.415c-0.171 0 0.341-0.171 0.171-0.256 22.016-30.379 45.056-142.046 45.056-181.914v290.133c0 51.302-31.403 97.417-65.877 131.26-35.609 34.885-84.404 56.427-138.231 56.474h-341.684c-53.944-0.044-102.849-21.582-138.62-56.512l0.039 0.038c-34.475-33.843-66.56-79.957-66.56-131.26v-221.867zM325.12 91.836v277.658c-109.568 0-205.653-73.95-205.653-177.493v-256h56.149c82.346 4.152 147.761 71.072 149.501 153.654l0.003 0.168v2.014z" />
<glyph unicode="&#xe931;" d="M0 960h1024v-1024h-1024v1024z" />
<glyph unicode="&#xe932;" d="M0 960v-1024h1024v1024h-1024zM51.2 908.8h921.6v-921.6h-921.6v921.6z" />
<glyph unicode="&#xe933;" d="M256 524.186c1.65 72.836 61.085 131.25 134.163 131.25 0.893 0 1.785-0.009 2.674-0.026l-0.133 0.002h239.104c0.216 0.001 0.472 0.002 0.728 0.002 45.161 0 85.209-21.891 110.112-55.64l0.264-0.375h0.512c15.454-37.364 24.472-80.744 24.576-126.218v-0.041 201.267c0 0.019 0 0.042 0 0.065 0 36.346-15.106 69.163-39.382 92.516l-0.042 0.040c-24.914 24.439-59.079 39.524-96.768 39.526h-239.104c-37.689-0.003-71.854-15.088-96.79-39.548l0.022 0.021c-24.479-23.366-39.754-56.192-39.936-92.587v-150.101zM393.216 198.656v194.56c-1.059 0.030-2.305 0.047-3.555 0.047-72.984 0-132.307-58.486-133.66-131.146l-0.002-0.127v-172.39h32.256c57.694 2.806 103.582 49.587 104.958 107.388l0.002 0.132v1.536z" />
<glyph unicode="&#xe934;" d="M392.704 384.205h239.104c0.030 0 0.066 0 0.103 0 75.16 0 136.090 60.929 136.090 136.090 0 0.072 0 0.144 0 0.216v-0.011c-0.008 30.28-9.186 58.414-24.908 81.779l0.332-0.525c-24.3-33.619-63.396-55.242-107.542-55.242-1.252 0-2.501 0.017-3.745 0.052l0.183-0.004h-239.104c-54.608-1.308-101.31-33.853-123.033-80.398l-0.359-0.856c-8.391-18.029-13.445-39.098-13.822-61.306l-0.002-0.134v-156.109c0.146 75.431 61.269 136.536 136.693 136.653h0.011z" />
<glyph unicode="&#xe935;" glyph-name="pic_welcome" horiz-adv-x="3413" d="M2965.589 669.867h17.067v-324.267h-17.067v324.267zM2974.123 260.267c9.426 0 17.067-7.641 17.067-17.067s-7.641-17.067-17.067-17.067c-9.426 0-17.067 7.641-17.067 17.067v0c0 9.426 7.641 17.067 17.067 17.067v0zM2590.123 396.8c0-84.702 57.344-153.6 128-153.6 55.637 0 102.912 42.837 120.491 102.4h17.92c-18.432-69.239-73.387-119.467-138.411-119.467-80.043 0-145.067 76.407-145.067 170.667s65.024 170.667 145.067 170.667 145.067-76.407 145.067-170.667h-273.067zM2718.123 550.4c-65.707 0-119.979-59.853-127.147-136.533h254.293c-7.168 76.681-61.44 136.533-127.147 136.533zM2487.723 465.067c0 47.128-38.205 85.333-85.333 85.333s-85.333-38.205-85.333-85.333v0-238.933h-17.067v238.933c0 47.128-38.205 85.333-85.333 85.333s-85.333-38.205-85.333-85.333v0-238.933h-17.067v341.333h17.067v-45.926c18.54 27.835 49.793 45.926 85.273 45.926 0.021 0 0.043 0 0.064 0h-0.003c41.984 0 78.165-14.609 93.867-50.859 15.701 36.25 51.883 50.859 93.867 50.859 56.554 0 102.4-45.846 102.4-102.4v0-238.933h-17.067v238.933zM1898.923 226.133c-80.043 0-145.067 76.407-145.067 170.667s65.024 170.667 145.067 170.667 145.067-76.407 145.067-170.667-65.024-170.667-145.067-170.667zM1898.923 550.4c-70.656 0-128-68.898-128-153.6s57.344-153.6 128-153.6 128 68.898 128 153.6-57.344 153.6-128 153.6zM1560.832 243.2c56.832 0 105.301 42.837 123.392 102.4h18.261c-18.944-69.239-75.264-119.467-141.653-119.467-81.92 0-148.309 76.407-148.309 170.667s66.389 170.667 148.309 170.667c66.389 0 122.709-50.227 141.653-119.467h-18.261c-18.091 59.563-66.56 102.4-123.392 102.4-72.192 0-130.901-68.898-130.901-153.6s58.709-153.6 130.901-153.6zM1327.189 669.867h17.067v-443.733h-17.067v443.733zM985.856 396.8c0-84.702 57.344-153.6 128-153.6 55.637 0 102.912 42.837 120.491 102.4h17.92c-18.432-69.239-73.387-119.467-138.411-119.467-80.043 0-145.067 76.407-145.067 170.667s65.024 170.667 145.067 170.667 145.067-76.407 145.067-170.667h-273.067zM1113.856 550.4c-65.707 0-119.979-59.853-127.147-136.533h254.293c-7.168 76.681-61.44 136.533-127.147 136.533zM781.739 226.133l-112.299 420.062-112.128-420.062h-16.896l-118.443 443.733h17.92l109.056-408.491 109.056 408.491h23.040l109.056-408.491 109.056 408.491h17.92l-118.613-443.733h-16.725z" />
<glyph unicode="&#xe936;" glyph-name="icon_delete" d="M823.652 692.87h-155.826v22.261c0 36.883-29.9 66.783-66.783 66.783v0h-178.087c-36.883 0-66.783-29.9-66.783-66.783v0-22.261h-155.826c-12.294 0-22.261-9.967-22.261-22.261s9.967-22.261 22.261-22.261v0h44.522v-445.217c0-49.177 39.866-89.043 89.043-89.043v0h356.174c49.177 0 89.043 39.866 89.043 89.043v0 445.217h44.522c12.294 0 22.261 9.967 22.261 22.261s-9.967 22.261-22.261 22.261v0zM400.696 715.13c0 12.294 9.967 22.261 22.261 22.261v0h178.087c12.294 0 22.261-9.967 22.261-22.261v0-22.261h-222.609v22.261zM734.609 603.826v-400.696c0-24.589-19.933-44.522-44.522-44.522v0h-356.174c-24.589 0-44.522 19.933-44.522 44.522v0 445.217h445.217v-44.522zM534.261 537.043v-267.13c0-12.294-9.967-22.261-22.261-22.261s-22.261 9.967-22.261 22.261v0 267.13c0 12.294 9.967 22.261 22.261 22.261s22.261-9.967 22.261-22.261v0zM422.957 537.043v-267.13c0-12.294-9.967-22.261-22.261-22.261s-22.261 9.967-22.261 22.261v0 267.13c0 12.294 9.967 22.261 22.261 22.261s22.261-9.967 22.261-22.261v0zM645.565 537.043v-267.13c0-12.294-9.967-22.261-22.261-22.261s-22.261 9.967-22.261 22.261v0 267.13c0 12.294 9.967 22.261 22.261 22.261s22.261-9.967 22.261-22.261v0z" />
<glyph unicode="&#xe937;" glyph-name="icon_factory_settings" d="M534.261 557.078c-6.532 1.182-14.205 1.982-22.019 2.22l-0.241 0.006c-86.060 0-155.826-69.766-155.826-155.826s69.766-155.826 155.826-155.826c86.060 0 155.826 69.766 155.826 155.826v0h44.522c0-110.649-89.699-200.348-200.348-200.348s-200.348 89.699-200.348 200.348c0 110.649 89.699 200.348 200.348 200.348v0c8.23-0.376 15.897-1.172 23.426-2.38l-1.165 0.154v91.27l178.087-111.304-178.087-111.304v86.817z" />
<glyph unicode="&#xe938;" glyph-name="icon_music_big" d="M680.8 196.048c-47.68-12.192-93.92 4.8-103.2 37.872s21.76 69.824 69.6 82.032c8.92 2.356 19.16 3.709 29.717 3.709 3.902 0 7.762-0.185 11.569-0.546l-0.486 0.037v309.648l-240-41.728v-379.072h-0.8c4.32-31.408-25.44-64.496-70.4-75.952-47.68-12.192-93.92 4.8-103.2 37.872s21.76 69.824 69.6 82.032c8.92 2.356 19.16 3.709 29.717 3.709 3.902 0 7.762-0.185 11.569-0.546l-0.486 0.037v448.848l368 64v-496h-0.8c4.32-31.408-25.44-64.496-70.4-75.952z" />
<glyph unicode="&#xe939;" glyph-name="icon_point" d="M445.217 626.087c0-61.472-49.833-111.304-111.304-111.304s-111.304 49.833-111.304 111.304c0 61.472 49.833 111.304 111.304 111.304v0c61.472 0 111.304-49.833 111.304-111.304v0zM801.391 470.261h-311.652v-311.652h44.522v235.654l235.654-235.654 31.477 31.477-235.654 235.654h235.654v44.522z" />
<glyph unicode="&#xe93a;" glyph-name="icon_polygo" d="M845.913 715.13c0 36.883-29.9 66.783-66.783 66.783s-66.783-29.9-66.783-66.783v0c0.104-8.32 1.729-16.232 4.608-23.51l-0.156 0.448-170.741-142.47c-9.716 5.981-21.488 9.525-34.087 9.525-21.226 0-40.103-10.057-52.127-25.666l-0.114-0.154-148.079 49.508c-0.523 36.481-30.22 65.854-66.776 65.854-36.883 0-66.783-29.9-66.783-66.783 0-34.056 25.492-62.159 58.436-66.266l0.327-0.033 61.841-278.261c-19.313-11.933-31.99-32.988-31.99-57.003 0-36.883 29.9-66.783 66.783-66.783 29.108 0 53.867 18.623 63.011 44.604l0.143 0.468h230.801c9.271-26.48 34.045-45.132 63.176-45.132 36.883 0 66.783 29.9 66.783 66.783 0 25.252-14.015 47.23-34.691 58.581l-0.347 0.174 68.43 410.49c31.485 5.736 55.052 32.919 55.118 65.618v0.007zM627.4 203.13h-230.801c-8.516 23.445-29.196 40.512-54.21 43.686l-0.329 0.034-61.841 278.261c6.648 4.248 12.288 9.393 16.941 15.346l0.111 0.147 147.946-49.33c0.19-36.739 30.017-66.447 66.782-66.447 36.883 0 66.783 29.9 66.783 66.783 0 8.621-1.634 16.861-4.608 24.427l0.157-0.453 170.741 142.47 1.647-0.89-68.385-410.49c-23.809-4.491-42.888-21.116-50.787-43.077l-0.146-0.466z" />
<glyph unicode="&#xe93b;" glyph-name="icon_round" d="M623.304 670.609c0 61.472-49.833 111.304-111.304 111.304s-111.304-49.833-111.304-111.304v0c-105.465-44.778-178.087-147.474-178.087-267.13 0-159.826 129.565-289.391 289.391-289.391s289.391 129.565 289.391 289.391c0 119.657-72.622 222.352-176.194 266.415l-1.893 0.715zM512 158.609c-135.137 0.134-244.634 109.714-244.634 244.869 0 98.243 57.855 182.973 141.353 221.978l1.504 0.631c17.724-39.377 56.618-66.297 101.799-66.297s84.075 26.92 101.516 65.595l0.283 0.702c85.002-39.636 142.858-124.366 142.858-222.609 0-135.171-109.523-244.761-244.668-244.869h-0.011zM578.783 403.478c0-36.883-29.9-66.783-66.783-66.783s-66.783 29.9-66.783 66.783c0 36.883 29.9 66.783 66.783 66.783v0c36.883 0 66.783-29.9 66.783-66.783v0z" />
<glyph unicode="&#xe93c;" glyph-name="icon_setting_s" d="M756.87 448c0-0.008 0-0.018 0-0.028 0-45.057-12.236-87.256-33.566-123.456l0.62 1.138-39.179 22.617c17.338 28.831 27.594 63.629 27.594 100.821 0 102.333-77.637 186.534-177.224 196.912l-0.853 0.072v-86.773l-178.087 111.304 178.087 111.304v-90.157c125.282-11.776 222.555-116.398 222.609-243.751v-0.005zM489.739 249.923c-100.44 10.451-178.077 94.651-178.077 196.984 0 37.193 10.255 71.99 28.093 101.719l-0.499-0.898-39.135 22.617c-20.745-35.163-33.001-77.476-33.001-122.652 0-127.315 97.34-231.896 221.658-243.378l0.961-0.072v-90.157l178.087 111.304-178.087 111.304v-86.773z" />
<glyph unicode="&#xe93d;" glyph-name="icon_warning@2x" d="M512 114.087c-184.415 0-333.913 149.498-333.913 333.913s149.498 333.913 333.913 333.913c184.415 0 333.913-149.498 333.913-333.913v0c0-184.415-149.498-333.913-333.913-333.913v0zM512 737.391c-159.826 0-289.391-129.565-289.391-289.391s129.565-289.391 289.391-289.391c159.826 0 289.391 129.565 289.391 289.391v0c0 159.826-129.565 289.391-289.391 289.391v0zM512 269.913c-24.589 0-44.522 19.933-44.522 44.522s19.933 44.522 44.522 44.522c24.589 0 44.522-19.933 44.522-44.522v0c0-24.589-19.933-44.522-44.522-44.522v0zM489.739 648.348h44.522v-244.87h-44.522v244.87z" />
<glyph unicode="&#xe93e;" d="M801.391 448c0-159.826-129.565-289.391-289.391-289.391s-289.391 129.565-289.391 289.391c0 159.826 129.565 289.391 289.391 289.391s289.391-129.565 289.391-289.391z" />
<glyph unicode="&#xe93f;" d="M756.87 470.261c0-147.532-119.598-267.13-267.13-267.13s-267.13 119.598-267.13 267.13c0 147.532 119.598 267.13 267.13 267.13s267.13-119.598 267.13-267.13z" />
<glyph unicode="&#xe940;" d="M623.304 470.261c0-73.766-59.799-133.565-133.565-133.565s-133.565 59.799-133.565 133.565c0 73.766 59.799 133.565 133.565 133.565s133.565-59.799 133.565-133.565z" />
<glyph unicode="&#xe941;" d="M222.609 559.304h578.783v-400.696h-578.783v400.696z" />
<glyph unicode="&#xe942;" d="M222.609 559.304v178.087h178.087l133.565-89.043h267.13v-89.043h-578.783z" />
<glyph unicode="&#xe943;" d="M222.609 559.304h578.783v-400.696h-578.783v400.696z" />
<glyph unicode="&#xe944;" d="M222.609 559.304v178.087h178.087l133.565-89.043h267.13v-89.043h-578.783z" />
<glyph unicode="&#xe945;" d="M222.609 626.087h534.261v-44.522h-534.261v44.522zM222.609 492.522h534.261v-44.522h-534.261v44.522zM222.609 358.957h534.261v-44.522h-534.261v44.522z" />
<glyph unicode="&#xe946;" d="M267.13 581.565h534.261v-44.522h-534.261v44.522zM267.13 448h534.261v-44.522h-534.261v44.522zM267.13 314.435h534.261v-44.522h-534.261v44.522z" />
<glyph unicode="&#xe947;" glyph-name="icon_paper_orange" d="M88.598 960h845.913c49.177 0 89.043-39.866 89.043-89.043v0-845.913c0-49.177-39.866-89.043-89.043-89.043v0h-845.913c-49.177 0-89.043 39.866-89.043 89.043v0 845.913c0 49.177 39.866 89.043 89.043 89.043v0z" />
<glyph unicode="&#xe948;" glyph-name="btn_check_off" d="M341.333 704h341.333c47.128 0 85.333-38.205 85.333-85.333v0-341.333c0-47.128-38.205-85.333-85.333-85.333v0h-341.333c-47.128 0-85.333 38.205-85.333 85.333v0 341.333c0 47.128 38.205 85.333 85.333 85.333v0zM341.333 661.333c-23.564 0-42.667-19.103-42.667-42.667v0-341.333c0-23.564 19.103-42.667 42.667-42.667v0h341.333c23.564 0 42.667 19.103 42.667 42.667v0 341.333c0 23.564-19.103 42.667-42.667 42.667v0z" />
<glyph unicode="&#xe949;" glyph-name="btn_edit2" d="M432.213 368.213c-25.173 25.173 42.667 130.56 42.667 130.56l85.333-85.333s-103.253-70.4-128-45.227zM725.333 746.667l85.333-85.333-218.453-219.307-85.333 85.333zM298.667 746.667h170.667v-85.333h-145.067c-14.138 0-25.6-11.462-25.6-25.6v0-375.467c0-14.138 11.462-25.6 25.6-25.6v0h375.467c14.138 0 25.6 11.462 25.6 25.6v0 145.067h85.333v-170.667c0-47.128-38.205-85.333-85.333-85.333v0h-426.667c-47.128 0-85.333 38.205-85.333 85.333v0 426.667c0 47.128 38.205 85.333 85.333 85.333v0z" />
<glyph unicode="&#xe94a;" glyph-name="btn_reload2" d="M512 618.667c-94.257 0-170.667-76.41-170.667-170.667s76.41-170.667 170.667-170.667c94.257 0 170.667 76.41 170.667 170.667v0h85.333c0-141.385-114.615-256-256-256s-256 114.615-256 256c0 141.385 114.615 256 256 256v0 85.333l170.667-128-170.667-128z" />
<glyph unicode="&#xe94b;" glyph-name="btn_view2" d="M512 192c-141.227 0-384 213.333-384 256s242.773 256 384 256 384-213.333 384-256-242.773-256-384-256zM512 277.333c94.257 0 170.667 76.41 170.667 170.667s-76.41 170.667-170.667 170.667c-94.257 0-170.667-76.41-170.667-170.667v0c0-94.257 76.41-170.667 170.667-170.667v0zM512 362.667c-47.128 0-85.333 38.205-85.333 85.333s38.205 85.333 85.333 85.333c47.128 0 85.333-38.205 85.333-85.333v0c0-47.128-38.205-85.333-85.333-85.333v0z" />
<glyph unicode="&#xe94c;" glyph-name="icon_add2" d="M554.667 490.667v256h-85.333v-256h-256v-85.333h256v-256h85.333v256h256v85.333h-256z" />
<glyph unicode="&#xe94d;" glyph-name="icon_attribute" d="M345.173 320h-89.173v-42.667h85.333v-21.333c0-35.346 28.654-64 64-64s64 28.654 64 64v0 21.333h298.667v42.667h-302.507c-9.024 25.12-32.639 42.762-60.373 42.762s-51.349-17.642-60.233-42.316l-0.14-0.446zM601.173 448c9.024-25.12 32.639-42.762 60.373-42.762s51.349 17.642 60.233 42.316l0.14 0.446h46.080v42.667h-46.507c-9.024 25.12-32.639 42.762-60.373 42.762s-51.349-17.642-60.233-42.316l-0.14-0.446h-344.747v-42.667zM345.173 661.333h-89.173v-42.667h89.173c9.024-25.12 32.639-42.762 60.373-42.762s51.349 17.642 60.233 42.316l0.14 0.446h302.080v42.667h-302.507c-9.191 24.806-32.648 42.165-60.16 42.165s-50.969-17.359-60.016-41.722l-0.144-0.443z" />
<glyph unicode="&#xe94e;" glyph-name="icon_control2" d="M725.333 192h-426.667c-23.564 0-42.667 19.103-42.667 42.667v0 341.333h42.667v-320c0-11.782 9.551-21.333 21.333-21.333v0h384c11.782 0 21.333 9.551 21.333 21.333v0 320h42.667v-341.333c0-23.564-19.103-42.667-42.667-42.667v0zM426.667 704h298.667c23.564 0 42.667-19.103 42.667-42.667v0-42.667h-341.333zM597.333 362.667h-128v42.667h128zM373.333 576l85.333-85.333h10.667v-42.667h-10.667l-85.333-85.333-32 32 74.667 74.667-74.667 74.667zM256 661.333c0 23.564 19.103 42.667 42.667 42.667v0h85.333v-85.333h-128z" />
<glyph unicode="&#xe94f;" glyph-name="icon_expand" d="M426.667 277.333v341.333l170.667-170.667-170.667-170.667z" />
<glyph unicode="&#xe950;" glyph-name="icon_expand_less" d="M341.333 533.333h341.333l-170.667-170.667-170.667 170.667z" />
<glyph unicode="&#xe951;" glyph-name="icon_folder2" d="M725.333 618.667h-426.667v-85.333h-42.667v170.667h170.667l85.333-42.667h256v-128h-42.667zM725.333 192h-426.667l-85.333 298.667h597.333z" />
<glyph unicode="&#xe952;" glyph-name="icon_folder_2" d="M256 533.333h512v-341.333h-512zM256 576v128h170.667l85.333-42.667h256v-85.333z" />
<glyph unicode="&#xe953;" glyph-name="icon_layout2" d="M768 405.333v-213.333h-170.667v85.333h-128v170.667h-42.667v-85.333h-170.667v213.333h170.667v-85.333h42.667v128h128v85.333h170.667v-213.333h-170.667v85.333h-85.333v-256h85.333v85.333zM640 234.667h85.333v128h-85.333zM384 533.333h-85.333v-128h85.333zM640 533.333h85.333v128h-85.333z" />
<glyph unicode="&#xe954;" glyph-name="icon_more" d="M469.333 704h85.333v-85.333h-85.333zM469.333 490.667h85.333v-85.333h-85.333zM469.333 277.333h85.333v-85.333h-85.333z" />
<glyph unicode="&#xe955;" glyph-name="icon_pro_game2" d="M768 405.333v-128c0-47.128-38.205-85.333-85.333-85.333v0h-128v42.667h128c23.564 0 42.667 19.103 42.667 42.667v0 128zM768 490.667v128c0 47.128-38.205 85.333-85.333 85.333v0h-128v-42.667h128c23.564 0 42.667-19.103 42.667-42.667v0-128zM256 405.333v-128c0-47.128 38.205-85.333 85.333-85.333v0h128v42.667h-128c-23.564 0-42.667 19.103-42.667 42.667v0 128zM256 490.667v128c0 47.128 38.205 85.333 85.333 85.333v0h128v-42.667h-128c-23.564 0-42.667-19.103-42.667-42.667v0-128z" />
<glyph unicode="&#xe956;" glyph-name="icon_project2" d="M682.667 192v85.333h85.333v-85.333zM682.667 405.333h85.333v-85.333h-85.333zM554.667 277.333h85.333v-85.333h-85.333zM512 320h42.667v-42.667h-42.667zM640 405.333v-85.333h-85.333v85.333zM341.333 448v42.667h42.667v-42.667zM256 576h85.333v-85.333h-85.333zM384 576h85.333v-85.333h-85.333zM384 704h85.333v-85.333h-85.333zM256 704h85.333v-85.333h-85.333zM384 320h85.333v-42.667h-128v128h42.667z" />
<glyph unicode="&#xe957;" glyph-name="icon_scenes2" d="M256 618.667l14.933-85.333 482.987 85.333-14.933 85.333zM256 192h512v341.333h-512zM298.667 490.667h426.667v-42.667h-341.333v-42.667h341.333v-170.667h-426.667z" />
<glyph unicode="&#xe958;" glyph-name="icon_search2" d="M617.813 282.027c-41.24-29.65-92.757-47.417-148.423-47.417-141.385 0-256 114.615-256 256s114.615 256 256 256c141.385 0 256-114.615 256-256 0-55.666-17.767-107.182-47.94-149.188l0.523 0.765 118.613-118.613c9.153-7.872 14.914-19.467 14.914-32.407 0-23.564-19.103-42.667-42.667-42.667-12.94 0-24.535 5.761-32.36 14.858l-0.047 0.056zM469.333 320c94.257 0 170.667 76.41 170.667 170.667s-76.41 170.667-170.667 170.667c-94.257 0-170.667-76.41-170.667-170.667v0c0-94.257 76.41-170.667 170.667-170.667v0z" />
<glyph unicode="&#xe959;" glyph-name="icon_setting" d="M512 362.667c-47.128 0-85.333 38.205-85.333 85.333s38.205 85.333 85.333 85.333c47.128 0 85.333-38.205 85.333-85.333v0c0-47.128-38.205-85.333-85.333-85.333v0zM768 384v128h-98.133c-6.527 15.485-14.545 28.845-24.157 40.875l0.264-0.342 50.773 87.467-110.933 64-50.347-87.893c-6.844 1.308-14.919 2.225-23.146 2.55l-0.321 0.010c-8.546-0.333-16.621-1.25-24.501-2.72l1.034 0.16-50.347 87.893-110.933-64 50.773-87.467c-9.348-11.689-17.366-25.048-23.472-39.416l-0.422-1.117h-98.133v-128h98.133c6.527-15.485 14.545-28.845 24.157-40.875l-0.264 0.342-50.773-87.467 110.933-64 50.773 87.893c6.7-1.288 14.624-2.204 22.697-2.548l0.343-0.012c8.542 0.33 16.617 1.247 24.497 2.72l-1.030-0.16 50.347-87.893 110.933 64-50.773 87.467c9.348 11.689 17.366 25.048 23.472 39.416l0.422 1.117z" />
<glyph unicode="&#xe95a;" glyph-name="icon_welcome2" d="M640 277.333l-42.667-85.333-85.333 85.333h-170.667c-47.128 0-85.333 38.205-85.333 85.333v0 256c0 47.128 38.205 85.333 85.333 85.333v0h341.333c47.128 0 85.333-38.205 85.333-85.333v0-256c0-47.128-38.205-85.333-85.333-85.333v0zM341.333 661.333c-23.564 0-42.667-19.103-42.667-42.667v0-256c0-23.564 19.103-42.667 42.667-42.667v0h341.333c23.564 0 42.667 19.103 42.667 42.667v0 256c0 23.564-19.103 42.667-42.667 42.667v0zM384 618.667h85.333v-85.333h-85.333zM384 448h85.333v-85.333h-85.333zM597.333 618.667c26.637-35.21 42.667-79.733 42.667-128s-16.029-92.79-43.055-128.537l0.389 0.537h-57.6c35.509 31.425 57.781 77.111 57.781 128s-22.272 96.575-57.601 127.843l-0.18 0.157z" />
<glyph unicode="&#xe95b;" d="M341.333 704h341.333c47.128 0 85.333-38.205 85.333-85.333v0-341.333c0-47.128-38.205-85.333-85.333-85.333v0h-341.333c-47.128 0-85.333 38.205-85.333 85.333v0 341.333c0 47.128 38.205 85.333 85.333 85.333v0z" />
<glyph unicode="&#xe95c;" d="M479.573 407.467l-120.747 120.747-60.16-60.587 180.907-180.907 271.787 271.787-60.587 60.16-211.2-211.2z" />
<glyph unicode="&#xe95d;" horiz-adv-x="341" d="M91.733 287.147v133.973c-0.255 0.003-0.556 0.004-0.857 0.004-49.893 0-90.396-40.206-90.876-89.985v-119.512h23.040c38.533 3.805 68.424 35.917 68.693 75.066v0.027zM0 614.827c0.531 24.642 10.884 46.767 27.285 62.699l0.022 0.021c16.558 16.353 39.324 26.454 64.449 26.454 0.142 0 0.284 0 0.427-0.001h159.125c0.127 0.001 0.277 0.001 0.428 0.001 49.335 0 89.357-39.873 89.599-89.151v-0.023s0-3.84 0-5.547v-97.707c0 0.026 0 0.056 0 0.086 0 19.294-6.070 37.171-16.403 51.824l0.19-0.284c-16.491 23.343-43.364 38.4-73.753 38.4-0.021 0-0.042 0-0.064 0h-159.997c-0.003 0-0.006 0-0.009 0-49.977 0-90.576-40.153-91.297-89.959l-0.001-0.068z" />
<glyph unicode="&#xe95e;" horiz-adv-x="341" d="M91.733 420.693h159.147c0 0 0.001 0 0.001 0 49.806 0 90.21 40.255 90.452 90.004v0.023c0 0.1 0.001 0.218 0.001 0.336 0 19.775-6.060 38.135-16.424 53.324l0.211-0.327c-16.296-22.597-42.548-37.135-72.195-37.135-0.569 0-1.137 0.005-1.703 0.016l0.085-0.001h-158.72c-36.257-0.718-67.359-22.074-82.105-52.775l-0.242-0.558c-5.814-11.707-9.39-25.441-9.81-39.966l-0.003-0.141v-103.253c0.483 50.059 41.175 90.453 91.303 90.453 0.001 0 0.003 0 0.004 0v0z" />
<glyph unicode="&#xe95f;" glyph-name="logo_paper_grey" horiz-adv-x="171" d="M0 576h170.667v-42.667h-170.667zM0 448h170.667v-42.667h-170.667zM0 320h170.667v-42.667h-170.667z" />
</font>
</defs>
</svg>
