<svg xmlns="http://www.w3.org/2000/svg" width="23" height="23" viewBox="0 0 23 23">
  <metadata><?xpacket begin="﻿" id="W5M0MpCehiHzreSzNTczkc9d"?>
<x:xmpmeta xmlns:x="adobe:ns:meta/" x:xmptk="Adobe XMP Core 5.6-c138 79.159824, 2016/09/14-01:09:01        ">
   <rdf:RDF xmlns:rdf="http://www.w3.org/1999/02/22-rdf-syntax-ns#">
      <rdf:Description rdf:about=""/>
   </rdf:RDF>
</x:xmpmeta>
                                                                                                    
                                                                                                    
                                                                                                    
                                                                                                    
                                                                                                    
                                                                                                    
                                                                                                    
                                                                                                    
                                                                                                    
                                                                                                    
                                                                                                    
                                                                                                    
                                                                                                    
                                                                                                    
                                                                                                    
                                                                                                    
                                                                                                    
                                                                                                    
                                                                                                    
                                                                                                    
                           
<?xpacket end="w"?></metadata>
<defs>
    <style>
      .cls-1 {
        fill: #fff;
        fill-rule: evenodd;
      }
    </style>
  </defs>
  <path id="btn_edit" class="cls-1" d="M365,111H354a2,2,0,0,1-2-2V98a2,2,0,0,1,2-2h6v2h-5a1,1,0,0,0-1,1v9a1,1,0,0,0,1,1h9a1,1,0,0,0,1-1v-4h2v5A2,2,0,0,1,365,111Zm-7.878-5.129c-0.586-.587,1.03-3.056,1.03-3.056l2.038,2.045S357.708,106.459,357.122,105.871Zm1.709-3.738L364.947,96l2.038,2.045-6.115,6.134Z" transform="translate(-348 -92)"/>
</svg>
