<svg xmlns="http://www.w3.org/2000/svg" width="23" height="23" viewBox="0 0 23 23">
  <metadata><?xpacket begin="﻿" id="W5M0MpCehiHzreSzNTczkc9d"?>
<x:xmpmeta xmlns:x="adobe:ns:meta/" x:xmptk="Adobe XMP Core 5.6-c138 79.159824, 2016/09/14-01:09:01        ">
   <rdf:RDF xmlns:rdf="http://www.w3.org/1999/02/22-rdf-syntax-ns#">
      <rdf:Description rdf:about=""/>
   </rdf:RDF>
</x:xmpmeta>
                                                                                                    
                                                                                                    
                                                                                                    
                                                                                                    
                                                                                                    
                                                                                                    
                                                                                                    
                                                                                                    
                                                                                                    
                                                                                                    
                                                                                                    
                                                                                                    
                                                                                                    
                                                                                                    
                                                                                                    
                                                                                                    
                                                                                                    
                                                                                                    
                                                                                                    
                                                                                                    
                           
<?xpacket end="w"?></metadata>
<defs>
    <style>
      .cls-1 {
        fill: #adacac;
        fill-rule: evenodd;
      }
    </style>
  </defs>
  <path id="icon_control" class="cls-1" d="M101,846H92a1,1,0,0,1-1-1v-7h1v6.5a0.5,0.5,0,0,0,.5.5h8a0.5,0.5,0,0,0,.5-0.5V838h1v7A1,1,0,0,1,101,846Zm-6-11h6a1,1,0,0,1,1,1v1H95v-2Zm4,8H96v-1h3v1Zm-5.254-5.008L95.754,840H96v0.246l0.008,0.008L96,840.263v0.474l0.008,0.009L96,840.754V841H95.754l-2.008,2.008-0.754-.754,1.754-1.754-1.754-1.754ZM91,836a1,1,0,0,1,1-1h2v2H91v-1Z" transform="translate(-85 -829)"/>
</svg>
