<svg xmlns="http://www.w3.org/2000/svg" width="46" height="46" viewBox="0 0 46 46">
  <metadata><?xpacket begin="﻿" id="W5M0MpCehiHzreSzNTczkc9d"?>
<x:xmpmeta xmlns:x="adobe:ns:meta/" x:xmptk="Adobe XMP Core 5.6-c138 79.159824, 2016/09/14-01:09:01        ">
   <rdf:RDF xmlns:rdf="http://www.w3.org/1999/02/22-rdf-syntax-ns#">
      <rdf:Description rdf:about=""/>
   </rdf:RDF>
</x:xmpmeta>
                                                                                                    
                                                                                                    
                                                                                                    
                                                                                                    
                                                                                                    
                                                                                                    
                                                                                                    
                                                                                                    
                                                                                                    
                                                                                                    
                                                                                                    
                                                                                                    
                                                                                                    
                                                                                                    
                                                                                                    
                                                                                                    
                                                                                                    
                                                                                                    
                                                                                                    
                                                                                                    
                           
<?xpacket end="w"?></metadata>
<defs>
    <style>
      .cls-1 {
        fill: #adacac;
        fill-rule: evenodd;
      }
    </style>
  </defs>
  <path id="icon_delete" class="cls-1" d="M1116,530h-7v-1a3,3,0,0,0-3-3h-8a3,3,0,0,0-3,3v1h-7a1,1,0,0,0,0,2h2v20a4,4,0,0,0,4,4h16a4,4,0,0,0,4-4V532h2A1,1,0,0,0,1116,530Zm-19-1a1,1,0,0,1,1-1h8a1,1,0,0,1,1,1v1h-10v-1Zm15,5v18a2,2,0,0,1-2,2h-16a2,2,0,0,1-2-2V532h20v2Zm-9,3v12a1,1,0,0,1-2,0V537A1,1,0,0,1,1103,537Zm-5,0v12a1,1,0,0,1-2,0V537A1,1,0,0,1,1098,537Zm10,0v12a1,1,0,0,1-2,0V537A1,1,0,0,1,1108,537Z" transform="translate(-1079 -518)"/>
</svg>
