<svg xmlns="http://www.w3.org/2000/svg" width="23" height="23" viewBox="0 0 23 23">
  <metadata><?xpacket begin="﻿" id="W5M0MpCehiHzreSzNTczkc9d"?>
<x:xmpmeta xmlns:x="adobe:ns:meta/" x:xmptk="Adobe XMP Core 5.6-c138 79.159824, 2016/09/14-01:09:01        ">
   <rdf:RDF xmlns:rdf="http://www.w3.org/1999/02/22-rdf-syntax-ns#">
      <rdf:Description rdf:about=""/>
   </rdf:RDF>
</x:xmpmeta>
                                                                                                    
                                                                                                    
                                                                                                    
                                                                                                    
                                                                                                    
                                                                                                    
                                                                                                    
                                                                                                    
                                                                                                    
                                                                                                    
                                                                                                    
                                                                                                    
                                                                                                    
                                                                                                    
                                                                                                    
                                                                                                    
                                                                                                    
                                                                                                    
                                                                                                    
                                                                                                    
                           
<?xpacket end="w"?></metadata>
<defs>
    <style>
      .cls-1 {
        fill: #adacac;
        fill-rule: evenodd;
      }
    </style>
  </defs>
  <path id="icon_polygo" class="cls-1" d="M925,337.5a1.5,1.5,0,0,0-3,0,1.485,1.485,0,0,0,.1.518l-3.835,3.2a1.477,1.477,0,0,0-1.939.366L913,340.472a1.5,1.5,0,1,0-1.68,1.51l1.389,6.25a1.5,1.5,0,1,0,2.2,1.768h5.184a1.5,1.5,0,1,0,2.132-1.806l1.537-9.22A1.5,1.5,0,0,0,925,337.5ZM920.092,349h-5.184a1.494,1.494,0,0,0-1.225-.982l-1.389-6.25a1.5,1.5,0,0,0,.383-0.348L916,342.528a1.5,1.5,0,1,0,2.9-.546l3.835-3.2,0.037,0.02-1.536,9.22A1.5,1.5,0,0,0,920.092,349Z" transform="translate(-906 -332)"/>
</svg>
