<svg xmlns="http://www.w3.org/2000/svg" width="23" height="23" viewBox="0 0 23 23">
  <metadata><?xpacket begin="﻿" id="W5M0MpCehiHzreSzNTczkc9d"?>
<x:xmpmeta xmlns:x="adobe:ns:meta/" x:xmptk="Adobe XMP Core 5.6-c138 79.159824, 2016/09/14-01:09:01        ">
   <rdf:RDF xmlns:rdf="http://www.w3.org/1999/02/22-rdf-syntax-ns#">
      <rdf:Description rdf:about=""/>
   </rdf:RDF>
</x:xmpmeta>
                                                                                                    
                                                                                                    
                                                                                                    
                                                                                                    
                                                                                                    
                                                                                                    
                                                                                                    
                                                                                                    
                                                                                                    
                                                                                                    
                                                                                                    
                                                                                                    
                                                                                                    
                                                                                                    
                                                                                                    
                                                                                                    
                                                                                                    
                                                                                                    
                                                                                                    
                                                                                                    
                           
<?xpacket end="w"?></metadata>
<defs>
    <style>
      .cls-1 {
        fill: #999;
        fill-rule: evenodd;
      }
    </style>
  </defs>
  <path id="icon_little_view" class="cls-1" d="M1445,1071h-3v-1h2a1,1,0,0,0,1-1v-5a1,1,0,0,0-1-1h-5a1,1,0,0,0-1,1h-1v-1a1,1,0,0,1,1-1h7a1,1,0,0,1,1,1v7A1,1,0,0,1,1445,1071Zm-4-5v4a1,1,0,0,1-1,1h-4a1,1,0,0,1-1-1v-4a1,1,0,0,1,1-1h4A1,1,0,0,1,1441,1066Z" transform="translate(-1429 -1055)"/>
</svg>
