<svg xmlns="http://www.w3.org/2000/svg" width="23" height="23" viewBox="0 0 23 23">
  <metadata><?xpacket begin="﻿" id="W5M0MpCehiHzreSzNTczkc9d"?>
<x:xmpmeta xmlns:x="adobe:ns:meta/" x:xmptk="Adobe XMP Core 5.6-c138 79.159824, 2016/09/14-01:09:01        ">
   <rdf:RDF xmlns:rdf="http://www.w3.org/1999/02/22-rdf-syntax-ns#">
      <rdf:Description rdf:about=""/>
   </rdf:RDF>
</x:xmpmeta>
                                                                                                    
                                                                                                    
                                                                                                    
                                                                                                    
                                                                                                    
                                                                                                    
                                                                                                    
                                                                                                    
                                                                                                    
                                                                                                    
                                                                                                    
                                                                                                    
                                                                                                    
                                                                                                    
                                                                                                    
                                                                                                    
                                                                                                    
                                                                                                    
                                                                                                    
                                                                                                    
                           
<?xpacket end="w"?></metadata>
<defs>
    <style>
      .cls-1 {
        fill: #adacac;
        fill-rule: evenodd;
      }
    </style>
  </defs>
  <path id="icon_welcome" class="cls-1" d="M126,48h-1l-1,2-2-2h-5a1,1,0,0,1-1-1V40a1,1,0,0,1,1-1h9a1,1,0,0,1,1,1v7A1,1,0,0,1,126,48Zm0-7.5a0.5,0.5,0,0,0-.5-0.5h-8a0.5,0.5,0,0,0-.5.5v6a0.5,0.5,0,0,0,.5.5h8a0.5,0.5,0,0,0,.5-0.5v-6ZM124,46h-1a3.742,3.742,0,0,0,1-2V43a3.576,3.576,0,0,0-1-2h1a3.266,3.266,0,0,1,1,1.989c0.011,0.4,0,.006,0,1A3.576,3.576,0,0,1,124,46Zm-5-2h2v2h-2V44Zm0-3h2v2h-2V41Z" transform="translate(-110 -33)"/>
</svg>
