<svg xmlns="http://www.w3.org/2000/svg" width="23" height="23" viewBox="0 0 23 23">
  <metadata><?xpacket begin="﻿" id="W5M0MpCehiHzreSzNTczkc9d"?>
<x:xmpmeta xmlns:x="adobe:ns:meta/" x:xmptk="Adobe XMP Core 5.6-c138 79.159824, 2016/09/14-01:09:01        ">
   <rdf:RDF xmlns:rdf="http://www.w3.org/1999/02/22-rdf-syntax-ns#">
      <rdf:Description rdf:about=""/>
   </rdf:RDF>
</x:xmpmeta>
                                                                                                    
                                                                                                    
                                                                                                    
                                                                                                    
                                                                                                    
                                                                                                    
                                                                                                    
                                                                                                    
                                                                                                    
                                                                                                    
                                                                                                    
                                                                                                    
                                                                                                    
                                                                                                    
                                                                                                    
                                                                                                    
                                                                                                    
                                                                                                    
                                                                                                    
                                                                                                    
                           
<?xpacket end="w"?></metadata>
<defs>
    <style>
      .cls-1 {
        fill: #adacac;
        fill-rule: evenodd;
      }
    </style>
  </defs>
  <path id="icon_setting_card" class="cls-1" d="M1904,73.5a4.414,4.414,0,0,1-.08.819l1.96,1.132-1.5,2.6-1.98-1.142a4.491,4.491,0,0,1-1.4.818V80h-3V77.725a4.491,4.491,0,0,1-1.4-.818l-1.98,1.142-1.5-2.6,1.96-1.132a4.229,4.229,0,0,1,0-1.637l-1.96-1.132,1.5-2.6,1.98,1.142a4.491,4.491,0,0,1,1.4-.818V67h3v2.275a4.491,4.491,0,0,1,1.4.818l1.98-1.142,1.5,2.6-1.96,1.132A4.414,4.414,0,0,1,1904,73.5Zm-4.5-2.5a2.5,2.5,0,1,0,2.5,2.5A2.5,2.5,0,0,0,1899.5,71Z" transform="translate(-1888 -62)"/>
</svg>
