<svg xmlns="http://www.w3.org/2000/svg" width="23" height="23" viewBox="0 0 23 23">
  <metadata><?xpacket begin="﻿" id="W5M0MpCehiHzreSzNTczkc9d"?>
<x:xmpmeta xmlns:x="adobe:ns:meta/" x:xmptk="Adobe XMP Core 5.6-c138 79.159824, 2016/09/14-01:09:01        ">
   <rdf:RDF xmlns:rdf="http://www.w3.org/1999/02/22-rdf-syntax-ns#">
      <rdf:Description rdf:about=""/>
   </rdf:RDF>
</x:xmpmeta>
                                                                                                    
                                                                                                    
                                                                                                    
                                                                                                    
                                                                                                    
                                                                                                    
                                                                                                    
                                                                                                    
                                                                                                    
                                                                                                    
                                                                                                    
                                                                                                    
                                                                                                    
                                                                                                    
                                                                                                    
                                                                                                    
                                                                                                    
                                                                                                    
                                                                                                    
                                                                                                    
                           
<?xpacket end="w"?></metadata>
<defs>
    <style>
      .cls-1 {
        fill: #adacac;
        fill-rule: evenodd;
      }
    </style>
  </defs>
  <path id="icon_property" class="cls-1" d="M1633.9,49a1.48,1.48,0,0,1-2.8,0H1629V48h2.1a1.48,1.48,0,0,1,2.8,0h6.1v1h-6.1Zm2.6-3a1.493,1.493,0,0,1-1.4-1H1629V44h6.1a1.48,1.48,0,0,1,2.8,0h2.1v1h-2.1A1.493,1.493,0,0,1,1636.5,46Zm-4-4a1.493,1.493,0,0,1-1.4-1H1629V40h2.1a1.48,1.48,0,0,1,2.8,0h6.1v1h-6.1A1.493,1.493,0,0,1,1632.5,42Z" transform="translate(-1623 -33)"/>
</svg>
