<svg xmlns="http://www.w3.org/2000/svg" width="23" height="23" viewBox="0 0 23 23">
  <metadata><?xpacket begin="﻿" id="W5M0MpCehiHzreSzNTczkc9d"?>
<x:xmpmeta xmlns:x="adobe:ns:meta/" x:xmptk="Adobe XMP Core 5.6-c138 79.159824, 2016/09/14-01:09:01        ">
   <rdf:RDF xmlns:rdf="http://www.w3.org/1999/02/22-rdf-syntax-ns#">
      <rdf:Description rdf:about=""/>
   </rdf:RDF>
</x:xmpmeta>
                                                                                                    
                                                                                                    
                                                                                                    
                                                                                                    
                                                                                                    
                                                                                                    
                                                                                                    
                                                                                                    
                                                                                                    
                                                                                                    
                                                                                                    
                                                                                                    
                                                                                                    
                                                                                                    
                                                                                                    
                                                                                                    
                                                                                                    
                                                                                                    
                                                                                                    
                                                                                                    
                           
<?xpacket end="w"?></metadata>
<defs>
    <style>
      .cls-1 {
        fill: #adacac;
        fill-rule: evenodd;
      }
    </style>
  </defs>
  <path id="icon_pro_game" class="cls-1" d="M23,44V41a1.411,1.411,0,0,0-1-1H19V39h3a2,2,0,0,1,2,2v3H23Zm-5-4H15a1.422,1.422,0,0,0-1,1v3H13V41a2,2,0,0,1,2-2h3v1Zm-4,5v3a1.427,1.427,0,0,0,1,1h3v1H15a2,2,0,0,1-2-2V45h1Zm5,4h3a1.338,1.338,0,0,0,1-1V45h1v3a2,2,0,0,1-2,2H19V49Z" transform="translate(-7 -33)"/>
</svg>
