<svg id="icon_user" data-name="icon user" xmlns="http://www.w3.org/2000/svg" width="36" height="36" viewBox="0 0 36 36"><defs><style>.cls-1{fill:#999;}.cls-2{fill:#fff;}</style></defs><title>画板 1</title><circle id="bg" class="cls-1" cx="18" cy="18" r="18"/><path class="cls-2" d="M16,28h4a9.94,9.94,0,0,0,7.31-3.2,16.61,16.61,0,0,1,3.87,2.26,16,16,0,0,1-26.36,0A16.61,16.61,0,0,1,8.69,24.8,9.94,9.94,0,0,0,16,28Zm-2-9a2,2,0,0,0,2-2V15a2,2,0,0,0-2-2H12a2,2,0,0,0-2,2v2a2,2,0,0,0,2,2Zm13-1a2,2,0,0,1-2,2H21a2,2,0,0,1-2-2V16H17v2a2,2,0,0,1-2,2H11a2,2,0,0,1-2-2V16H8v1a9,9,0,0,0,9,9h2a9,9,0,0,0,9-9V16H27ZM23,6.1V3L19,6V4L16,6H14a6,6,0,0,0-6,6v2H9a2,2,0,0,1,2-2h4a2,2,0,0,1,2,2h2a2,2,0,0,1,2-2h4a2,2,0,0,1,2,2h1V12A6,6,0,0,0,23,6.1ZM24,19a2,2,0,0,0,2-2V15a2,2,0,0,0-2-2H22a2,2,0,0,0-2,2v2a2,2,0,0,0,2,2Z"/></svg>