<svg id="logo_paper" xmlns="http://www.w3.org/2000/svg" width="20" height="20" viewBox="0 0 20 20">
  <metadata><?xpacket begin="﻿" id="W5M0MpCehiHzreSzNTczkc9d"?>
<x:xmpmeta xmlns:x="adobe:ns:meta/" x:xmptk="Adobe XMP Core 5.6-c138 79.159824, 2016/09/14-01:09:01        ">
   <rdf:RDF xmlns:rdf="http://www.w3.org/1999/02/22-rdf-syntax-ns#">
      <rdf:Description rdf:about=""/>
   </rdf:RDF>
</x:xmpmeta>
                                                                                                    
                                                                                                    
                                                                                                    
                                                                                                    
                                                                                                    
                                                                                                    
                                                                                                    
                                                                                                    
                                                                                                    
                                                                                                    
                                                                                                    
                                                                                                    
                                                                                                    
                                                                                                    
                                                                                                    
                                                                                                    
                                                                                                    
                                                                                                    
                                                                                                    
                                                                                                    
                           
<?xpacket end="w"?></metadata>
<defs>
    <style>
      .cls-1 {
        fill: #112426;
      }

      .cls-2 {
        fill: #e37847;
      }

      .cls-2, .cls-3 {
        fill-rule: evenodd;
      }

      .cls-3 {
        fill: #bb4426;
      }
    </style>
  </defs>
  <rect id="bg" class="cls-1" width="20" height="20"/>
  <path id="border" class="cls-2" d="M2860,325h20v20h-20V325Zm1,1h18v18h-18V326Z" transform="translate(-2860 -325)"/>
  <path id="light" class="cls-2" d="M2865,333.512a2.621,2.621,0,0,1,2.67-2.563v0h4.67a2.671,2.671,0,0,1,2.17,1.094l0.01,0a6.65,6.65,0,0,1,.48,2.466v-3.931a2.507,2.507,0,0,0-.77-1.809,2.7,2.7,0,0,0-1.89-.772h-4.67a2.7,2.7,0,0,0-1.89.772,2.516,2.516,0,0,0-.78,1.809v2.931Zm2.68,6.358v-3.8a2.611,2.611,0,0,0-2.68,2.563V342h0.63a2.152,2.152,0,0,0,2.05-2.1V339.87" transform="translate(-2860 -325)"/>
  <path id="dark" class="cls-3" d="M2867.67,336.246h4.67a2.658,2.658,0,0,0,2.66-2.662,2.866,2.866,0,0,0-.48-1.587,2.584,2.584,0,0,1-2.17,1.078h-4.67a2.72,2.72,0,0,0-2.41,1.587,3.023,3.023,0,0,0-.27,1.2v3.049a2.674,2.674,0,0,1,2.67-2.669" transform="translate(-2860 -325)"/>
</svg>
