<svg id="logo_bigger" xmlns="http://www.w3.org/2000/svg" width="140" height="60" viewBox="0 0 140 60">
  <metadata><?xpacket begin="﻿" id="W5M0MpCehiHzreSzNTczkc9d"?>
<x:xmpmeta xmlns:x="adobe:ns:meta/" x:xmptk="Adobe XMP Core 5.6-c138 79.159824, 2016/09/14-01:09:01        ">
   <rdf:RDF xmlns:rdf="http://www.w3.org/1999/02/22-rdf-syntax-ns#">
      <rdf:Description rdf:about=""/>
   </rdf:RDF>
</x:xmpmeta>
                                                                                                    
                                                                                                    
                                                                                                    
                                                                                                    
                                                                                                    
                                                                                                    
                                                                                                    
                                                                                                    
                                                                                                    
                                                                                                    
                                                                                                    
                                                                                                    
                                                                                                    
                                                                                                    
                                                                                                    
                                                                                                    
                                                                                                    
                                                                                                    
                                                                                                    
                                                                                                    
                           
<?xpacket end="w"?></metadata>
<defs>
    <style>
      .cls-1 {
        fill: #d8d8d8;
      }

      .cls-1, .cls-2 {
        fill-rule: evenodd;
      }

      .cls-2 {
        fill: #adacac;
      }
    </style>
  </defs>
  <path id="aper" class="cls-1" d="M2976,412h-3a7,7,0,0,0-7,7h4a3.006,3.006,0,0,1,3-3h3a3.006,3.006,0,0,1,3,3v1h-7.5a5.5,5.5,0,0,0-5.5,5.5v1a5.5,5.5,0,0,0,5.5,5.5h0.5a10.948,10.948,0,0,0,7-2.515V432h4V419A7,7,0,0,0,2976,412Zm-4,16h-0.5a1.5,1.5,0,0,1-1.5-1.5v-1a1.5,1.5,0,0,1,1.5-1.5h6.82A6.994,6.994,0,0,1,2972,428Zm24-16a8.338,8.338,0,0,0-5,1.686V412h-4v27h4v-8.686a8.338,8.338,0,0,0,5,1.686c4.97,0,9-4.477,9-10S3000.97,412,2996,412Zm0,16c-2.76,0-5-2.692-5-6s2.24-6,5-6,5,2.692,5,6S2998.76,428,2996,428Zm30.95-5c0.03-.329.05-0.662,0.05-1a9.513,9.513,0,1,0-9.5,10,9.489,9.489,0,0,0,8.7-6h-4.61a5.309,5.309,0,0,1-4.09,2,5.674,5.674,0,0,1-5.42-5h14.87Zm-9.45-7a5.562,5.562,0,0,1,5.18,4h-10.36A5.562,5.562,0,0,1,3017.5,416Zm20.44-3a8.391,8.391,0,0,0-3.94,1.051V413h-4v18h4V419.945c0-1.376,2.1-2.945,3.94-2.945H3040v-4h-2.06Z" transform="translate(-2907 -379)"/>
  <path id="egret" class="cls-1" d="M2995,399.5a0.5,0.5,0,0,0,.5.5h1v1H2995a1,1,0,0,1-1-1v-5h-1v-1h1v-1.5h1V394h2v1h-2v4.5Zm-6,.5a2.357,2.357,0,0,0,1.72-1H2992a3.39,3.39,0,0,1-3,2,3,3,0,0,1-3-3v-1a3,3,0,0,1,6,0v1h-5A2,2,0,0,0,2989,400Zm2-3a2,2,0,0,0-4,0h4Zm-8.99-.447v-1.467c0.76-1.4,2.99-1.056,2.99-1.056v0.9A3.344,3.344,0,0,0,2982.01,396.553ZM2981,394h1v7h-1v-7Zm-4,10a3,3,0,0,1-2.91-2.3H2975V401a2,2,0,0,0,4,0v-0.908a2.762,2.762,0,0,1-2,.908,3.542,3.542,0,0,1,0-7,3,3,0,0,1,2.7,2h0.3v6A3.107,3.107,0,0,1,2977,404Zm0-9a2.562,2.562,0,0,0,0,5A2.563,2.563,0,0,0,2977,395Zm-10-3h6v1h-5v3h5v1h-5v3h5v1h-6v-9Z" transform="translate(-2907 -379)"/>
  <path id="dark" class="cls-2" d="M2926,414c-6.3,0-12,6.043-12,12V413c0-1.652,1.3-4.6,2-6,1.83-3.647,6.45-6,11-6h20c3.87,0,6.88-1.21,8.94-4a13.011,13.011,0,0,1,2.06,7,8.462,8.462,0,0,1-2,6,12.56,12.56,0,0,1-9.43,4.195S2920.41,414,2926,414Z" transform="translate(-2907 -379)"/>
  <path id="light" class="cls-1" d="M2914,403c0-6.065,5.72-11,12-11h20a11.261,11.261,0,0,1,9.35,4.326c-0.01,0,.02.01,0.01,0.015,1.29,1.78,2.64,8.323,2.64,10.659V390c0-3.006-1.84-5.708-3.86-7.691a11.592,11.592,0,0,0-8.1-3.309h-20.02a11.64,11.64,0,0,0-8.12,3.309c-2.02,1.983-3.9,4.685-3.9,7.691v13Zm12.05,26.869V413.6c-6.42,0-12.05,4.333-12.05,10.4v15h3.29a9.212,9.212,0,0,0,8.76-9.013v-0.118" transform="translate(-2907 -379)"/>
</svg>
