<svg xmlns="http://www.w3.org/2000/svg" width="200" height="60" viewBox="0 0 200 60">
  <metadata><?xpacket begin="﻿" id="W5M0MpCehiHzreSzNTczkc9d"?>
<x:xmpmeta xmlns:x="adobe:ns:meta/" x:xmptk="Adobe XMP Core 5.6-c138 79.159824, 2016/09/14-01:09:01        ">
   <rdf:RDF xmlns:rdf="http://www.w3.org/1999/02/22-rdf-syntax-ns#">
      <rdf:Description rdf:about=""/>
   </rdf:RDF>
</x:xmpmeta>
                                                                                                    
                                                                                                    
                                                                                                    
                                                                                                    
                                                                                                    
                                                                                                    
                                                                                                    
                                                                                                    
                                                                                                    
                                                                                                    
                                                                                                    
                                                                                                    
                                                                                                    
                                                                                                    
                                                                                                    
                                                                                                    
                                                                                                    
                                                                                                    
                                                                                                    
                                                                                                    
                           
<?xpacket end="w"?></metadata>
<defs>
    <style>
      .cls-1 {
        fill: #d8d8d8;
        fill-rule: evenodd;
      }
    </style>
  </defs>
  <path id="pic_welcome" class="cls-1" d="M3370,396h1v19h-1V396Zm0.5,24a1,1,0,1,1-1,1A1,1,0,0,1,3370.5,420Zm-22.5-8c0,4.963,3.36,9,7.5,9,3.26,0,6.03-2.51,7.06-6h1.05c-1.08,4.057-4.3,7-8.11,7-4.69,0-8.5-4.477-8.5-10s3.81-10,8.5-10,8.5,4.477,8.5,10h-16Zm7.5-9c-3.85,0-7.03,3.507-7.45,8h14.9C3362.53,406.507,3359.35,403,3355.5,403Zm-13.5,5a5,5,0,0,0-10,0v14h-1V408a5,5,0,0,0-10,0v14h-1V402h1v2.691a5.984,5.984,0,0,1,5-2.691c2.46,0,4.58.856,5.5,2.98,0.92-2.124,3.04-2.98,5.5-2.98a6,6,0,0,1,6,6v14h-1V408Zm-34.5,14c-4.69,0-8.5-4.477-8.5-10s3.81-10,8.5-10,8.5,4.477,8.5,10S3312.19,422,3307.5,422Zm0-19c-4.14,0-7.5,4.037-7.5,9s3.36,9,7.5,9,7.5-4.037,7.5-9S3311.64,403,3307.5,403Zm-19.81,18c3.33,0,6.17-2.51,7.23-6h1.07c-1.11,4.057-4.41,7-8.3,7-4.8,0-8.69-4.477-8.69-10s3.89-10,8.69-10c3.89,0,7.19,2.943,8.3,7h-1.07c-1.06-3.49-3.9-6-7.23-6-4.23,0-7.67,4.037-7.67,9S3283.46,421,3287.69,421ZM3274,396h1v26h-1V396Zm-20,16c0,4.963,3.36,9,7.5,9,3.26,0,6.03-2.51,7.06-6h1.05c-1.08,4.057-4.3,7-8.11,7-4.69,0-8.5-4.477-8.5-10s3.81-10,8.5-10,8.5,4.477,8.5,10h-16Zm7.5-9c-3.85,0-7.03,3.507-7.45,8h14.9C3268.53,406.507,3265.35,403,3261.5,403Zm-19.46,19-6.58-24.613L3228.89,422h-0.99l-6.94-26h1.05l6.39,23.935L3234.79,396h1.35l6.39,23.935L3248.92,396h1.05l-6.95,26h-0.98Z" transform="translate(-3196.235 -379)"/>
</svg>
